<?xml version="1.0" encoding="UTF-8"?>
<svg xmlns="http://www.w3.org/2000/svg" xmlns:xlink="http://www.w3.org/1999/xlink" width="3003" height="3003" viewBox="0 0 3003 3003">
<path fill-rule="nonzero" fill="rgb(99.609375%, 99.609375%, 99.609375%)" fill-opacity="1" d="M 1.207031 0 C 0.886719 0 0.582031 0.128906 0.355469 0.359375 C 0.128906 0.578125 0 0.890625 0 1.210938 L 0 3001.207031 C 0 3001.875 0.542969 3002.417969 1.207031 3002.417969 L 3001.210938 3002.417969 C 3001.53125 3002.417969 3001.839844 3002.289062 3002.058594 3002.0625 C 3002.289062 3001.835938 3002.421875 3001.53125 3002.421875 3001.210938 L 3002.421875 1.210938 C 3002.421875 0.539062 3001.878906 0 3001.210938 0 Z M 1.207031 0 "/>
<path fill-rule="nonzero" fill="rgb(0%, 0%, 0%)" fill-opacity="1" d="M 2010.300781 820.441406 C 2010.300781 823.539062 2010.378906 826.621094 2010.519531 829.710938 C 2010.679688 832.789062 2010.910156 835.871094 2011.210938 838.941406 C 2011.511719 842.019531 2011.890625 845.078125 2012.339844 848.140625 C 2012.789062 851.191406 2013.320312 854.230469 2013.921875 857.261719 C 2014.53125 860.289062 2015.199219 863.308594 2015.949219 866.300781 C 2016.710938 869.289062 2017.53125 872.269531 2018.429688 875.230469 C 2019.320312 878.179688 2020.289062 881.109375 2021.328125 884.019531 C 2022.371094 886.929688 2023.480469 889.808594 2024.660156 892.660156 C 2025.839844 895.511719 2027.089844 898.339844 2028.410156 901.128906 C 2029.730469 903.921875 2031.121094 906.671875 2032.578125 909.398438 C 2034.039062 912.121094 2035.558594 914.808594 2037.140625 917.460938 C 2038.730469 920.109375 2040.378906 922.710938 2042.101562 925.28125 C 2043.820312 927.851562 2045.589844 930.371094 2047.429688 932.859375 C 2049.269531 935.328125 2051.179688 937.769531 2053.128906 940.160156 C 2055.089844 942.550781 2057.109375 944.878906 2059.179688 947.171875 C 2061.25 949.460938 2063.378906 951.691406 2065.570312 953.871094 C 2067.75 956.058594 2069.980469 958.191406 2072.269531 960.261719 C 2074.570312 962.339844 2076.890625 964.359375 2079.289062 966.308594 C 2081.679688 968.269531 2084.109375 970.171875 2086.589844 972.011719 C 2089.070312 973.851562 2091.589844 975.621094 2094.160156 977.339844 C 2096.730469 979.058594 2099.339844 980.710938 2101.980469 982.300781 C 2104.640625 983.890625 2107.320312 985.410156 2110.050781 986.859375 C 2112.769531 988.320312 2115.519531 989.710938 2118.320312 991.03125 C 2121.109375 992.351562 2123.929688 993.601562 2126.789062 994.78125 C 2129.640625 995.960938 2132.519531 997.070312 2135.421875 998.109375 C 2138.328125 999.148438 2141.261719 1000.121094 2144.21875 1001.019531 C 2147.179688 1001.910156 2150.148438 1002.730469 2153.140625 1003.488281 C 2156.140625 1004.238281 2159.148438 1004.910156 2162.179688 1005.519531 C 2165.210938 1006.121094 2168.25 1006.648438 2171.300781 1007.101562 C 2174.359375 1007.558594 2177.421875 1007.929688 2180.5 1008.230469 C 2183.570312 1008.53125 2186.648438 1008.769531 2189.730469 1008.921875 C 2192.820312 1009.070312 2195.898438 1009.140625 2199 1009.140625 C 2202.078125 1009.140625 2205.160156 1009.070312 2208.25 1008.921875 C 2211.339844 1008.769531 2214.410156 1008.53125 2217.480469 1008.230469 C 2220.558594 1007.929688 2223.621094 1007.558594 2226.679688 1007.101562 C 2229.730469 1006.648438 2232.769531 1006.121094 2235.808594 1005.519531 C 2238.828125 1004.910156 2241.851562 1004.238281 2244.839844 1003.488281 C 2247.839844 1002.730469 2250.808594 1001.910156 2253.769531 1001.019531 C 2256.71875 1000.121094 2259.648438 999.148438 2262.558594 998.109375 C 2265.46875 997.070312 2268.339844 995.960938 2271.199219 994.78125 C 2274.058594 993.601562 2276.878906 992.351562 2279.671875 991.03125 C 2282.460938 989.710938 2285.21875 988.320312 2287.941406 986.859375 C 2290.660156 985.410156 2293.359375 983.890625 2296 982.300781 C 2298.648438 980.710938 2301.261719 979.058594 2303.820312 977.339844 C 2306.390625 975.621094 2308.921875 973.851562 2311.398438 972.011719 C 2313.878906 970.171875 2316.308594 968.269531 2318.699219 966.308594 C 2321.089844 964.359375 2323.421875 962.339844 2325.710938 960.261719 C 2328 958.191406 2330.230469 956.058594 2332.421875 953.871094 C 2334.601562 951.691406 2336.730469 949.460938 2338.808594 947.171875 C 2340.878906 944.871094 2342.890625 942.539062 2344.851562 940.160156 C 2346.820312 937.769531 2348.710938 935.328125 2350.550781 932.859375 C 2352.390625 930.371094 2354.160156 927.851562 2355.878906 925.28125 C 2357.601562 922.710938 2359.25 920.109375 2360.839844 917.460938 C 2362.429688 914.808594 2363.949219 912.121094 2365.398438 909.390625 C 2366.859375 906.671875 2368.25 903.921875 2369.570312 901.121094 C 2370.890625 898.339844 2372.140625 895.511719 2373.320312 892.660156 C 2374.5 889.808594 2375.609375 886.929688 2376.660156 884.019531 C 2377.699219 881.109375 2378.660156 878.179688 2379.558594 875.230469 C 2380.460938 872.269531 2381.28125 869.289062 2382.03125 866.300781 C 2382.78125 863.308594 2383.449219 860.289062 2384.058594 857.261719 C 2384.660156 854.230469 2385.191406 851.191406 2385.640625 848.140625 C 2386.089844 845.078125 2386.46875 842.019531 2386.78125 838.941406 C 2387.078125 835.871094 2387.308594 832.789062 2387.460938 829.710938 C 2387.609375 826.621094 2387.679688 823.53125 2387.679688 820.441406 C 2387.679688 817.359375 2387.609375 814.28125 2387.460938 811.191406 C 2387.308594 808.109375 2387.078125 805.03125 2386.78125 801.960938 C 2386.46875 798.878906 2386.089844 795.820312 2385.640625 792.761719 C 2385.191406 789.710938 2384.660156 786.671875 2384.058594 783.640625 C 2383.449219 780.609375 2382.78125 777.589844 2382.03125 774.601562 C 2381.28125 771.601562 2380.460938 768.628906 2379.558594 765.671875 C 2378.660156 762.71875 2377.699219 759.789062 2376.660156 756.878906 C 2375.609375 753.96875 2374.5 751.089844 2373.320312 748.238281 C 2372.140625 745.390625 2370.890625 742.570312 2369.570312 739.769531 C 2368.25 736.980469 2366.859375 734.230469 2365.398438 731.5 C 2363.949219 728.78125 2362.429688 726.089844 2360.839844 723.441406 C 2359.25 720.789062 2357.601562 718.179688 2355.878906 715.609375 C 2354.160156 713.058594 2352.390625 710.53125 2350.550781 708.039062 C 2348.710938 705.570312 2346.820312 703.128906 2344.851562 700.738281 C 2342.890625 698.359375 2340.878906 696.019531 2338.808594 693.730469 C 2336.730469 691.441406 2334.601562 689.210938 2332.421875 687.019531 C 2330.230469 684.839844 2328 682.710938 2325.710938 680.640625 C 2323.421875 678.558594 2321.089844 676.539062 2318.699219 674.589844 C 2316.308594 672.628906 2313.878906 670.730469 2311.398438 668.890625 C 2308.921875 667.050781 2306.390625 665.28125 2303.820312 663.558594 C 2301.261719 661.839844 2298.648438 660.191406 2296 658.601562 C 2293.359375 657.011719 2290.660156 655.5 2287.941406 654.039062 C 2285.21875 652.578125 2282.460938 651.191406 2279.671875 649.871094 C 2276.878906 648.550781 2274.058594 647.300781 2271.199219 646.121094 C 2268.339844 644.941406 2265.46875 643.828125 2262.558594 642.789062 C 2259.648438 641.75 2256.71875 640.78125 2253.769531 639.878906 C 2250.808594 638.980469 2247.839844 638.160156 2244.839844 637.410156 C 2241.851562 636.660156 2238.828125 635.988281 2235.808594 635.378906 C 2232.769531 634.78125 2229.730469 634.25 2226.679688 633.800781 C 2223.621094 633.351562 2220.558594 632.96875 2217.480469 632.671875 C 2214.410156 632.371094 2211.339844 632.140625 2208.25 631.980469 C 2205.160156 631.839844 2202.078125 631.761719 2199 631.761719 C 2195.898438 631.761719 2192.820312 631.839844 2189.730469 631.980469 C 2186.648438 632.140625 2183.570312 632.371094 2180.5 632.671875 C 2177.429688 632.96875 2174.359375 633.351562 2171.300781 633.800781 C 2168.25 634.25 2165.210938 634.78125 2162.179688 635.378906 C 2159.148438 635.988281 2156.140625 636.660156 2153.140625 637.410156 C 2150.148438 638.171875 2147.179688 638.988281 2144.21875 639.878906 C 2141.261719 640.78125 2138.328125 641.75 2135.421875 642.789062 C 2132.519531 643.828125 2129.640625 644.941406 2126.789062 646.121094 C 2123.929688 647.308594 2121.109375 648.558594 2118.320312 649.871094 C 2115.519531 651.191406 2112.769531 652.578125 2110.050781 654.039062 C 2107.320312 655.5 2104.640625 657.019531 2101.980469 658.601562 C 2099.339844 660.191406 2096.730469 661.839844 2094.160156 663.558594 C 2091.589844 665.28125 2089.070312 667.050781 2086.589844 668.890625 C 2084.109375 670.730469 2081.679688 672.628906 2079.289062 674.589844 C 2076.890625 676.550781 2074.570312 678.558594 2072.269531 680.640625 C 2069.980469 682.710938 2067.75 684.839844 2065.570312 687.03125 C 2063.378906 689.210938 2061.25 691.441406 2059.179688 693.730469 C 2057.109375 696.019531 2055.089844 698.359375 2053.128906 700.738281 C 2051.179688 703.140625 2049.269531 705.570312 2047.429688 708.050781 C 2045.589844 710.53125 2043.820312 713.058594 2042.101562 715.621094 C 2040.378906 718.191406 2038.730469 720.800781 2037.140625 723.441406 C 2035.558594 726.089844 2034.039062 728.78125 2032.578125 731.5 C 2031.121094 734.230469 2029.730469 736.980469 2028.410156 739.769531 C 2027.089844 742.570312 2025.839844 745.390625 2024.660156 748.238281 C 2023.480469 751.101562 2022.371094 753.96875 2021.328125 756.878906 C 2020.289062 759.789062 2019.320312 762.71875 2018.429688 765.671875 C 2017.53125 768.628906 2016.710938 771.601562 2015.949219 774.601562 C 2015.199219 777.589844 2014.53125 780.609375 2013.921875 783.640625 C 2013.320312 786.671875 2012.789062 789.710938 2012.339844 792.761719 C 2011.890625 795.820312 2011.511719 798.878906 2011.210938 801.960938 C 2010.910156 805.03125 2010.679688 808.109375 2010.519531 811.191406 C 2010.378906 814.28125 2010.300781 817.359375 2010.300781 820.441406 Z M 2010.300781 820.441406 "/>
<path fill-rule="nonzero" fill="rgb(0%, 0%, 0%)" fill-opacity="1" d="M 2038.601562 1443.140625 L 1312.140625 2169.601562 C 1397.050781 2169.597656 1490.761719 2148.75 1576.308594 2122.429688 C 1613.488281 2110.984375 1814.96875 2050.082031 1868.460938 2100.761719 C 1994.378906 2220.054688 2029.171875 2424.335938 2085.78125 2480.945312 C 2142.390625 2537.550781 2227.300781 2518.683594 2312.210938 2433.773438 C 2387.679688 2358.296875 2420.5 2259.054688 2359.378906 2207.34375 C 2297.429688 2154.917969 2102.578125 2108.980469 1981.410156 1994.179688 C 1923.289062 1939.121094 1982.699219 1726.511719 1991.429688 1707.300781 C 2029.878906 1622.710938 2038.601562 1528.050781 2038.601562 1443.140625 Z M 717.753906 848.75 L 717.753906 848.761719 C 1066.839844 490.230469 1539.800781 621.058594 1831.039062 905.359375 C 1936.070312 1007.878906 2010.300781 1141.230469 2029.160156 1282.75 L 1151.738281 2160.171875 C 1010.230469 2131.863281 876.882812 2067.0625 774.359375 1962.039062 C 490.054688 1670.800781 359.238281 1197.828125 717.753906 848.75 Z M 717.753906 848.75 "/>
</svg>
